<svg width="30" height="30" viewBox="0 0 30 30" fill="none" xmlns="http://www.w3.org/2000/svg">
<rect width="30" height="30" rx="12" fill="#18D3A2"/>
<path fill-rule="evenodd" clip-rule="evenodd" d="M20.7749 12.4836L23.2783 12.3644L23.3379 11.7088C23.3379 9.08617 21.2517 7 18.6291 7H10.9401C8.31749 7 6.23132 9.08617 6.23132 11.7088V18.0865C6.23132 20.6495 8.31749 22.7953 10.9401 22.7953H18.5695C21.1921 22.7953 23.2783 20.7091 23.2783 18.0865V17.3712L20.9537 17.4904C19.5828 17.55 18.4503 16.4772 18.3907 15.1063V14.987C18.3907 13.6161 19.4636 12.5432 20.7749 12.4836ZM10 14.0288C10 14.7194 10.6056 15.6978 11.8451 16.9353C11.9296 17.0216 12.0704 17.0216 12.1549 16.9353C13.3944 15.6978 14 14.7194 14 14.0288C14 12.9065 13.0986 12 12 12C10.8873 12 10 12.9065 10 14.0288Z" fill="white"/>
<path d="M23.0995 14.8678C23.0995 15.4638 22.6227 15.9407 21.9671 15.9407H20.5961C20.0001 15.9407 19.5233 15.4638 19.5233 14.8678C19.5233 14.2717 20.0001 13.7353 20.5961 13.7353H21.9671C22.5631 13.7949 23.0995 14.2717 23.0995 14.8678Z" fill="white"/>
</svg>
