<svg width="15" height="15" viewBox="0 0 15 15" fill="none" xmlns="http://www.w3.org/2000/svg">
<g opacity="0.6">
<path d="M7.49981 13.4877C10.8194 13.4877 13.5243 10.7902 13.5243 7.47956C13.5243 4.16894 10.8194 1.51226 7.49981 1.51226C4.18022 1.51226 1.47537 4.20981 1.47537 7.52044C1.47537 10.8311 4.18022 13.4877 7.49981 13.4877ZM7.49981 15C3.36057 15 0 11.6485 0 7.47956C0 3.3515 3.36057 0 7.49981 0C11.6391 0 14.9996 3.3515 14.9996 7.47956C15.0406 11.6485 11.68 15 7.49981 15Z" fill="white"/>
<path d="M7.49989 3.76022C7.99168 3.76022 8.23758 4.00546 8.23758 4.49592V8.25614C8.23758 8.7466 7.99168 8.99183 7.49989 8.99183C7.0081 8.99183 6.76221 8.7466 6.76221 8.25614V4.49592C6.76221 4.00546 7.0081 3.76022 7.49989 3.76022Z" fill="white"/>
<path d="M12.008 8.25616C12.008 8.74662 11.7621 8.99185 11.2703 8.99185H7.49989C7.0081 8.99185 6.76221 8.74662 6.76221 8.25616C6.76221 7.76569 7.0081 7.52046 7.49989 7.52046H11.2703C11.7621 7.47959 12.008 7.72482 12.008 8.25616Z" fill="white"/>
</g>
</svg>
