<svg width="16" height="16" viewBox="0 0 16 16" fill="none" xmlns="http://www.w3.org/2000/svg">
<path d="M7.6129 5.16129V2.19355C6.19355 2.19355 4.90323 2.83871 3.87097 3.87097C2.45161 5.29032 1.80645 7.22581 2.32258 9.16129C2.58065 10.0645 2.96774 10.9677 3.6129 11.7419L3.74194 12L2.19355 13.5484L1.80645 13.1613C1.29032 12.5161 0.774194 11.871 0.516129 11.0968C0.258065 10.0645 0 9.03226 0 8C0 6.96774 0.258065 5.93548 0.645161 5.03226C1.03226 4 1.67742 3.09677 2.45161 2.45161C3.22581 1.67742 4.12903 1.16129 5.03226 0.645161C6.06452 0.129032 7.22581 0 8.3871 0H12.7742C13.1613 0 13.2903 0.516129 13.0323 0.774194L8.3871 5.41935C8.12903 5.67742 7.6129 5.54839 7.6129 5.16129ZM16 8C16 9.03226 15.7419 10.0645 15.3548 10.9677C14.9677 12 14.3226 12.9032 13.5484 13.5484C12.7742 14.3226 11.871 14.8387 10.9677 15.3548C10.0645 15.7419 9.03226 16 8 16C7.87097 16 7.74194 16 7.6129 16H7.48387H2.96774C2.58065 16 2.45161 15.4839 2.70968 15.2258L7.35484 10.5806C7.6129 10.3226 8.12903 10.4516 8.12903 10.8387V13.8065C9.67742 13.8065 11.0968 13.1613 12.129 12.129C13.5484 10.7097 14.0645 8.77419 13.6774 6.83871C13.5484 5.93548 13.0323 5.03226 12.3871 4.25806L12.2581 3.87097L13.8065 2.32258L14.1935 2.70968C14.7097 3.35484 15.2258 4 15.4839 4.77419C15.7419 5.93548 16 6.96774 16 8Z" fill="white"/>
</svg>
