<svg width="26" height="26" viewBox="0 0 26 26" fill="none" xmlns="http://www.w3.org/2000/svg">
<path d="M23 10.7214V21.5057C23 22.8996 21.9138 24 20.5379 24H15.5414V20.3319C15.5414 19.4515 15.1793 18.7179 14.6724 18.131C14.0931 17.5441 13.369 17.2507 12.5 17.2507C10.8345 17.2507 9.45862 18.6445 9.45862 20.3319V24H4.46207C3.08621 24 2 22.8996 2 21.5057V10.7214C2 9.84105 2.43448 9.10742 3.15862 8.59389L11.1966 3.38515C11.9931 2.87162 13.0069 2.87162 13.8759 3.38515L21.9138 8.59389C22.5655 9.10742 23 9.84105 23 10.7214Z" />
</svg>
