<svg width="26" height="26" viewBox="0 0 26 26" fill="none" xmlns="http://www.w3.org/2000/svg">
<path  d="M16.7692 2H5.15385C3.92308 2 3 2.96504 3 4.17133V18.7273C3 22.1853 5.84615 25 9.30769 25H20.9231C22.0769 25 23 24.035 23 22.8287V8.27273C23 4.81469 20.2308 2 16.7692 2ZM13.2308 18.5664H8.92308C8.23077 18.5664 7.61538 18.0035 7.61538 17.2797C7.61538 16.5559 8.23077 15.993 8.92308 15.993H13.2308C13.9231 15.993 14.5385 16.5559 14.5385 17.2797C14.5385 18.0035 13.9231 18.5664 13.2308 18.5664ZM17.0769 11.007H8.92308C8.23077 11.007 7.61538 10.4441 7.61538 9.72028C7.69231 9.07692 8.23077 8.43357 8.92308 8.43357H17.0769C17.7692 8.43357 18.3846 9.07692 18.3846 9.72028C18.3846 10.4441 17.7692 11.007 17.0769 11.007Z" />
</svg>
