<svg width="26" height="26" viewBox="0 0 26 26" fill="none" xmlns="http://www.w3.org/2000/svg">
<g >
<path d="M5.43006 24.228H3.09845C1.93264 24.228 1 23.2954 1 22.1296V13.8135C1 12.6477 1.93264 11.7151 3.09845 11.7151H5.43006C6.59587 11.7151 7.52851 12.6477 7.52851 13.8135V22.1296C7.52851 23.2954 6.59587 24.228 5.43006 24.228Z" />
<path d="M14.3679 24.228H12.0363C10.8705 24.228 9.93784 23.2954 9.93784 22.1296V10.0829C9.93784 8.91711 10.8705 7.98447 12.0363 7.98447H14.3679C15.5337 7.98447 16.4664 8.91711 16.4664 10.0829V22.0519C16.4664 23.2954 15.5337 24.228 14.3679 24.228Z" />
<path d="M23.228 24.228H20.8964C19.7306 24.228 18.798 23.2954 18.798 22.1296V4.09845C18.8757 2.93264 19.8083 2 20.9741 2H23.3057C24.4716 2 25.4042 2.93264 25.4042 4.09845V22.1296C25.4042 23.2954 24.3938 24.228 23.228 24.228Z" />
</g>
</svg>
