<svg width="36" height="36" viewBox="0 0 36 36" fill="none" xmlns="http://www.w3.org/2000/svg">
<rect width="36" height="36" rx="14" fill="#18D3A2"/>
<path d="M6.97138 25C6.42472 25 5.87806 24.7647 5.44073 24.2941C4.78474 23.4706 4.89407 22.1765 5.55006 21.3529L11.782 14.6471C12.438 13.9412 13.5313 13.9412 14.1873 14.6471L15.8273 16.4118C16.4833 17.1176 17.5766 17.1176 18.2326 16.4118L21.8405 12.5294C22.4965 11.8235 23.5898 11.8235 24.2458 12.5294L30.3684 19.1176C31.1337 19.9412 31.2431 21.3529 30.4778 22.1765C29.7124 23.1176 28.5098 23.1176 27.6351 22.1765L24.2458 18.5294C23.5898 17.8235 22.4965 17.8235 21.8405 18.5294L18.2326 22.4118C17.5766 23.1176 16.4833 23.1176 15.8273 22.4118L14.1873 20.6471C13.5313 19.9412 12.438 19.9412 11.782 20.6471L8.39269 24.2941C7.95536 24.7647 7.51804 25 6.97138 25Z" fill="white"/>
</svg>
