<svg width="26" height="26" viewBox="0 0 26 26" fill="none" xmlns="http://www.w3.org/2000/svg">
<g >
<path d="M23.9209 9.47212L20.599 9.63031C18.8589 9.7094 17.4352 11.1331 17.4352 12.9523V13.1104C17.5143 14.9296 19.0171 16.3533 20.8362 16.2742L23.9209 16.116V17.0652C23.9209 20.5453 21.1526 23.3136 17.6725 23.3136H7.54844C4.0683 23.3136 1.3 20.4662 1.3 17.0652V8.60209C1.3 5.12195 4.0683 2.35365 7.54844 2.35365H17.7516C21.2317 2.35365 24 5.12195 24 8.60209L23.9209 9.47212Z" />
<path d="M23.6836 12.794C23.6836 13.585 23.0509 14.2177 22.1808 14.2177H20.3617C19.5707 14.2177 18.938 13.585 18.938 12.794C18.938 12.0031 19.5707 11.2913 20.3617 11.2913H22.1808C22.9718 11.3704 23.6836 12.0031 23.6836 12.794Z" />
</g>
</svg>
